<svg id="Layer_3" data-name="Layer 3" xmlns="http://www.w3.org/2000/svg" viewBox="0 0 748.66 535.5"><title>cosmetic-54</title><path d="M44.27,293.33H80V317H44.27v48.55h45v23.68h-71V223.47h71v23.68h-45v46.18Z" style="fill:#fff"/><path d="M201.76,223.47L174.52,304l29.13,85.25H176.18l-21.08-65.6h-0.47l-21.31,65.6H108.92L138.05,304l-27.23-80.52h27l19.42,61.1h0.47l19.89-61.1h24.16Z" style="fill:#fff"/><path d="M310.46,389.24H284.17l-4.5-30.08h-32l-4.5,30.08H219.28L245.8,223.47h38.13ZM251,336.67h25.1L263.8,252.84h-0.47Z" style="fill:#fff"/><path d="M386.95,341.17h0.47l17.52-117.7h36.23V389.24H416.55V270.36h-0.47L398.55,389.24H373.92L355,272H354.5V389.24H331.77V223.47H368Z" style="fill:#fff"/><path d="M546.8,264.44V286c0,26.52-12.79,41-38.84,41H495.64v62.28h-26V223.47H508C534,223.47,546.8,237.92,546.8,264.44Zm-51.15-17.29v56.12H508c8.29,0,12.79-3.79,12.79-15.63V262.78c0-11.84-4.5-15.63-12.79-15.63H495.64Z" style="fill:#fff"/><path d="M568.35,223.47h26V365.56h42.86v23.68H568.35V223.47Z" style="fill:#fff"/><path d="M684.15,293.33h35.76V317H684.15v48.55h45v23.68h-71V223.47h71v23.68h-45v46.18Z" style="fill:#fff"/><path d="M28,439.7c-4.57,0-8,3.7-8,8.65s3.46,8.7,8,8.7c2.6,0,5.72-1.54,8-3.89l5.77,6.15a20.37,20.37,0,0,1-14.28,6.49c-10.24,0-17.78-7.4-17.78-17.35s7.69-17.06,18.12-17.06a19.81,19.81,0,0,1,13.94,6L36,444.17C33.92,441.48,30.8,439.7,28,439.7Z" style="fill:#fff"/><path d="M93.52,448.49c0,9.9-7.79,17.3-18.36,17.3s-18.36-7.35-18.36-17.3,7.79-17.11,18.36-17.11S93.52,438.64,93.52,448.49Zm-26.48,0a8.57,8.57,0,0,0,8.27,8.89c4.42,0,8-3.8,8-8.89s-3.56-8.8-8-8.8A8.46,8.46,0,0,0,67,448.54Z" style="fill:#fff"/><path d="M124.71,439.07c-1.68,0-2.79.58-2.79,1.83,0,5,17.59,2,17.59,14.18,0,7.16-6.34,10.57-13.89,10.57a27.48,27.48,0,0,1-16.2-5.33l3.75-7.59c3.46,2.93,9.08,5.14,12.55,5.14,2.11,0,3.46-.72,3.46-2.26,0-5.1-17.59-1.87-17.59-13.75,0-6.49,5.53-10.62,13.94-10.62a27.14,27.14,0,0,1,14.08,3.89l-3.7,7.69C132.45,440.85,127.54,439.07,124.71,439.07Z" style="fill:#fff"/><path d="M168.3,431.67l8.12,18.65,8.12-18.65h10.72v33.69h-8.75l0-19.95L179.69,462h-6.54l-6.78-16.63v19.95h-8.8V431.67H168.3Z" style="fill:#fff"/><path d="M242.89,431.67v7.69H225.35v5.29h15.91v7.69H225.35v5.33h18v7.69h-28V431.67h27.54Z" style="fill:#fff"/><path d="M289.65,431.67v8h-9.81v25.71h-10V439.65H260v-8h29.61Z" style="fill:#fff"/><path d="M317.19,431.67v33.69h-10V431.67h10Z" style="fill:#fff"/><path d="M353.62,439.7c-4.57,0-8,3.7-8,8.65s3.46,8.7,8,8.7c2.6,0,5.72-1.54,8-3.89l5.77,6.15a20.37,20.37,0,0,1-14.28,6.49c-10.24,0-17.78-7.4-17.78-17.35s7.69-17.06,18.12-17.06a19.81,19.81,0,0,1,13.94,6l-5.77,6.83C359.53,441.48,356.41,439.7,353.62,439.7Z" style="fill:#fff"/><path d="M428.64,439.07c-1.68,0-2.79.58-2.79,1.83,0,5,17.59,2,17.59,14.18,0,7.16-6.34,10.57-13.89,10.57a27.48,27.48,0,0,1-16.2-5.33l3.75-7.59c3.46,2.93,9.08,5.14,12.55,5.14,2.11,0,3.46-.72,3.46-2.26,0-5.1-17.59-1.87-17.59-13.75,0-6.49,5.53-10.62,13.94-10.62a27.14,27.14,0,0,1,14.08,3.89l-3.7,7.69C436.38,440.85,431.48,439.07,428.64,439.07Z" style="fill:#fff"/><path d="M477,457.43c3.32,0,5.67-2.36,5.67-6.3V431.67h10v19.47c0,8.94-6.1,14.66-15.72,14.66s-16-5.72-16-14.66V431.67h10v19.47C471,455,473.62,457.43,477,457.43Z" style="fill:#fff"/><path d="M532,465.36l-4.47-9.08h-5.29v9.08h-10V431.67h15.72c9,0,14.23,4.33,14.23,12,0,5-2,8.65-5.67,10.72l6.83,11H532Zm-9.76-16.77h5.72c3,0,4.71-1.63,4.71-4.66s-1.73-4.57-4.71-4.57h-5.72v9.23Z" style="fill:#fff"/><path d="M583.49,447.92h8.6v13.55a28.21,28.21,0,0,1-14.42,4.33c-10.43,0-18.12-7.35-18.12-17.26s7.93-17.16,18.79-17.16a22.54,22.54,0,0,1,14.23,5.1l-5.67,6.87a13.2,13.2,0,0,0-8.6-3.65,8.87,8.87,0,0,0,.1,17.74,13.47,13.47,0,0,0,5.09-1.3v-8.22Z" style="fill:#fff"/><path d="M639,431.67v7.69H621.46v5.29h15.91v7.69H621.46v5.33h18v7.69h-28V431.67H639Z" style="fill:#fff"/><path d="M678.46,465.36L674,456.28H668.7v9.08h-10V431.67h15.72c9,0,14.23,4.33,14.23,12,0,5-2,8.65-5.67,10.72l6.83,11H678.46Zm-9.76-16.77h5.72c3,0,4.71-1.63,4.71-4.66s-1.73-4.57-4.71-4.57H668.7v9.23Z" style="fill:#fff"/><path d="M726.8,454.69v10.67h-10V454.89l-12.35-23.21h10l7.35,13.75L729,431.67h9.95Z" style="fill:#fff"/><path d="M232.23,510.92c0,4.68-3,7.4-8.2,7.4h-4.77v6.25h-3.49V503.85H224C229.24,503.85,232.23,506.42,232.23,510.92Zm-3.35.09c0-2.72-1.81-4-5-4h-4.62v8.2h4.62C227.08,515.19,228.89,513.82,228.89,511Z" style="fill:#eb8980"/><path d="M264.23,514.21c0,5.92-4.8,10.51-11,10.51s-11-4.59-11-10.51,4.8-10.45,11-10.45S264.23,508.29,264.23,514.21Zm-18.41,0a7.43,7.43,0,0,0,7.46,7.37A7.34,7.34,0,1,0,245.82,514.21Z" style="fill:#eb8980"/><path d="M289.39,524.57l-3.79-6.28c-0.3,0-.62,0-0.95,0h-4.91v6.25h-3.49V503.85h8.41c5.3,0,8.35,2.58,8.35,7.08,0,3.32-1.54,5.65-4.29,6.72l4.65,6.93h-4Zm-4.74-9.38c3.2,0,5-1.36,5-4.17s-1.83-4-5-4h-4.91v8.2h4.91Z" style="fill:#eb8980"/><path d="M320.09,503.85V507h-6.57v17.58H310V507h-6.54v-3.14h16.61Z" style="fill:#eb8980"/><path d="M334.86,503.85V521.4h9v3.17H331.37V503.85h3.49Z" style="fill:#eb8980"/><path d="M369,519.89H358.57l-2,4.68h-3.64l9.15-20.72h3.58l9.06,20.72H371Zm-1.33-3.11-3.91-9.21-3.91,9.21h7.81Z" style="fill:#eb8980"/><path d="M389.21,503.85l11.1,14.89V503.85h3.43v20.72h-3.43l-11-14.86v14.86h-3.49V503.85h3.43Z" style="fill:#eb8980"/><path d="M436.72,514.21c0,6-4.53,10.36-10.8,10.36h-8.41V503.85H426C432.22,503.85,436.72,508.2,436.72,514.21Zm-3.52,0a7.06,7.06,0,0,0-7.25-7.25H421v14.45h5.09A7,7,0,0,0,433.2,514.24Z" style="fill:#eb8980"/><path d="M451.05,522.88a2.71,2.71,0,0,1-.53,1.57L448.83,527h-1.75l1.12-2.58A1.86,1.86,0,1,1,451.05,522.88Z" style="fill:#eb8980"/><path d="M500.78,514.21c0,5.92-4.8,10.51-11,10.51s-11-4.59-11-10.51,4.8-10.45,11-10.45S500.78,508.29,500.78,514.21Zm-18.41,0a7.43,7.43,0,0,0,7.46,7.37A7.34,7.34,0,1,0,482.37,514.21Z" style="fill:#eb8980"/><path d="M525.94,524.57l-3.79-6.28c-0.3,0-.62,0-0.95,0h-4.91v6.25H512.8V503.85h8.41c5.3,0,8.35,2.58,8.35,7.08,0,3.32-1.54,5.65-4.29,6.72l4.65,6.93h-4Zm-4.74-9.38c3.2,0,5-1.36,5-4.17s-1.84-4-5-4h-4.91v8.2h4.91Z" style="fill:#eb8980"/><path d="M115.51,160.95v3.14H104.2v5.63h10.12v3.11H104.2v5.71h11.66v3.14H100.71V160.95h14.8Z" style="fill:#eb8980"/><path d="M135,164.08c-2,0-3.37.77-3.37,2.16,0,4.53,11.19,2.1,11.16,9.56,0,3.7-3.26,6-7.81,6a12.75,12.75,0,0,1-8.47-3.29l1.51-3a10.93,10.93,0,0,0,7,3c2.43,0,3.88-.92,3.88-2.52,0-4.62-11.19-2-11.19-9.41,0-3.55,3-5.77,7.55-5.77a13.5,13.5,0,0,1,7.25,2.13L141,166A12.38,12.38,0,0,0,135,164.08Z" style="fill:#eb8980"/><path d="M169.27,160.95v3.14H162.7v17.58H159.2V164.08h-6.54v-3.14h16.61Z" style="fill:#eb8980"/><path d="M181.26,180a1.87,1.87,0,1,1-3.73,0A1.87,1.87,0,1,1,181.26,180Z" style="fill:#eb8980"/><path d="M565.81,160.92v20.75h-3.49V164.05h-4.47v-3.14h8Z" style="fill:#eb8980"/><path d="M589,178.91c4,0,5.86-3,5.74-7.52a6,6,0,0,1-5.62,3c-4.11,0-6.63-2.61-6.63-6.63,0-4.29,2.87-7,7.25-7,5.21,0,8.41,3.73,8.41,10.09,0,6.63-3.46,11-8.91,11a13.57,13.57,0,0,1-6.16-1.57l1.36-2.63A8.69,8.69,0,0,0,589,178.91Zm-3.26-11.16c0,2.37,1.54,3.85,4,3.85,2.81,0,4.44-1.84,4.41-4,0-1.81-1.27-3.88-4.26-3.88C587.42,163.76,585.73,165.24,585.73,167.75Z" style="fill:#eb8980"/><path d="M625,160.92v2.66l-8.73,18.09h-3.7l8.55-17.61h-8.76l0,2.9h-3.11v-6H625Z" style="fill:#eb8980"/><path d="M643.34,168.52c4.71,0,7.73,2.66,7.73,6.28,0,4.23-3.14,7-8,7a14.78,14.78,0,0,1-7.67-2.37l1.42-2.84a9.73,9.73,0,0,0,5.86,2.19c2.9,0,4.65-1.42,4.65-3.73,0-2.13-1.75-3.43-4.59-3.43-1.33,0-4.23.12-5.71,0.3v-11h13.14v3.14h-9.92v4.5C641.18,168.52,642.54,168.52,643.34,168.52Z" style="fill:#eb8980"/><path d="M511.05,73.07a114.72,114.72,0,0,0-47,1.49,114.71,114.71,0,0,0-7.39-46.42,114.55,114.55,0,0,0-48.5,25.3A114.56,114.56,0,0,0,377,8.5a114.56,114.56,0,0,0-31.18,44.94,114.55,114.55,0,0,0-48.5-25.3,114.71,114.71,0,0,0-7.39,46.42,114.72,114.72,0,0,0-47-1.49,114.34,114.34,0,0,0,22.17,62.17c-7.43-.06-14.86.17-22.17,0.71,1.6,13.3,16.22,26.27,42.91,35.22,20.6,6.91,45.12,10.33,69.57,10.47h2.5A115.06,115.06,0,0,0,376.85,180l0.15,0h0l0.15,0a115.06,115.06,0,0,0,18.92,1.71h2.5c24.45-.14,49-3.56,69.57-10.47,26.69-9,41.32-21.92,42.91-35.22-7.31-.54-14.74-0.77-22.17-0.71A114.33,114.33,0,0,0,511.05,73.07Z" style="fill:#eb877e;opacity:0.5"/><polygon points="377 179.93 377 179.93 377 179.93 377 179.93 377 179.93 377 179.93 377 179.93" style="fill:#eb8980"/><circle cx="377" cy="179.93" style="fill:#eb8980"/><path d="M382.59,86.06A115.41,115.41,0,0,0,377,98.45a113.56,113.56,0,0,1,7.38,46.38,113.64,113.64,0,0,1,31.16-44.89c0.09-1.89.15-3.8,0.15-5.72a114,114,0,0,0-7.5-40.77A114,114,0,0,0,382.59,86.06Z" style="fill:#eb8980"/><circle cx="377" cy="179.93" style="fill:#eb8980"/><path d="M338.47,99.93a113.64,113.64,0,0,1,31.16,44.89A113.56,113.56,0,0,1,377,98.45a115.36,115.36,0,0,0-5.59-12.39,114,114,0,0,0-25.59-32.62,114,114,0,0,0-7.5,40.77C338.32,96.14,338.37,98,338.47,99.93Z" style="fill:#eb8980"/><path d="M377,179.93a114.9,114.9,0,0,1,7.38-35.1A113.56,113.56,0,0,0,377,98.45a113.56,113.56,0,0,0-7.38,46.38,114.91,114.91,0,0,1,7.38,35.1h0Z" style="fill:#eb8980"/><path d="M377,179.93a114.9,114.9,0,0,1,7.38-35.1A113.56,113.56,0,0,0,377,98.45a113.56,113.56,0,0,0-7.38,46.38,114.91,114.91,0,0,1,7.38,35.1h0Z" style="fill:#eb8980"/><path d="M398.57,181.66h0Z" style="fill:#eb8980"/><path d="M377.15,180v-0.06l-0.16,0Z" style="fill:#eb8980"/><circle cx="377" cy="179.93" transform="translate(-40.67 187.6) rotate(-26.57)" style="fill:#eb8980"/><circle cx="377" cy="179.93" transform="translate(-40.67 187.6) rotate(-26.57)" style="fill:#eb8980"/><path d="M377,179.93h0l0.16,0,0-.12Z" style="fill:#eb8980"/><path d="M377,179.93h0l0.16,0,0-.12Z" style="fill:#eb8980"/><path d="M415.54,99.93a113.66,113.66,0,0,1-17.69,55.61,114.83,114.83,0,0,1,22.07-9.82,179.5,179.5,0,0,1,19-5.17,114.78,114.78,0,0,0,25.11-66,113.85,113.85,0,0,0-44.16,21.69Q417.66,98,415.54,99.93Z" style="fill:#eb8980"/><path d="M397.85,155.54a113.66,113.66,0,0,0,17.69-55.61,113.64,113.64,0,0,0-31.16,44.89,114.81,114.81,0,0,1-5.25,29C382.23,167.33,388.52,161.09,397.85,155.54Z" style="fill:#eb8980"/><path d="M397.85,155.54a113.66,113.66,0,0,0,17.69-55.61,113.64,113.64,0,0,0-31.16,44.89,114.81,114.81,0,0,1-5.25,29C382.23,167.33,388.52,161.09,397.85,155.54Z" style="fill:#eb8980"/><path d="M377,179.93h0l0.18-.16c0-.25.1-0.49,0.15-0.74C377.22,179.33,377.11,179.63,377,179.93Z" style="fill:#eb8980"/><path d="M377,179.93h0l0.18-.16c0-.25.1-0.49,0.15-0.74C377.22,179.33,377.11,179.63,377,179.93Z" style="fill:#eb8980"/><path d="M377,179.93h0l0.18-.16c0-.25.1-0.49,0.15-0.74C377.22,179.33,377.11,179.63,377,179.93Z" style="fill:#eb8980"/><path d="M377,179.93c0.11-.3.22-0.6,0.33-0.9a23.44,23.44,0,0,1,1.8-5.22,114.81,114.81,0,0,0,5.25-29,114.9,114.9,0,0,0-7.38,35.1h0Z" style="fill:#eb8980"/><path d="M377,179.93c0.11-.3.22-0.6,0.33-0.9a23.44,23.44,0,0,1,1.8-5.22,114.81,114.81,0,0,0,5.25-29,114.9,114.9,0,0,0-7.38,35.1h0Z" style="fill:#eb8980"/><path d="M377,179.93c0.11-.3.22-0.6,0.33-0.9a23.44,23.44,0,0,1,1.8-5.22,114.81,114.81,0,0,0,5.25-29,114.9,114.9,0,0,0-7.38,35.1h0Z" style="fill:#eb8980"/><path d="M376.85,180l0.15,0-0.16,0V180Z" style="fill:#eb8980"/><path d="M357.93,181.66h0Z" style="fill:#eb8980"/><polygon points="377 179.93 377 179.93 377 179.93 377 179.93" style="fill:#eb8980"/><polygon points="377 179.93 377 179.93 377 179.93 377 179.93" style="fill:#eb8980"/><path d="M376.82,179.77l0,0.12,0.16,0h0Z" style="fill:#eb8980"/><path d="M376.82,179.77l0,0.12,0.16,0h0Z" style="fill:#eb8980"/><path d="M315,140.55a179.5,179.5,0,0,1,19,5.17,114.81,114.81,0,0,1,22.07,9.82,113.66,113.66,0,0,1-17.69-55.61q-2.14-1.88-4.38-3.68a113.86,113.86,0,0,0-44.16-21.69A114.78,114.78,0,0,0,315,140.55Z" style="fill:#eb8980"/><path d="M377,179.93c-0.11-.3-0.22-0.6-0.33-0.9,0.05,0.25.11,0.49,0.15,0.74l0.18,0.16h0Z" style="fill:#eb8980"/><path d="M377,179.93c-0.11-.3-0.22-0.6-0.33-0.9,0.05,0.25.11,0.49,0.15,0.74l0.18,0.16h0Z" style="fill:#eb8980"/><path d="M377,179.93c-0.11-.3-0.22-0.6-0.33-0.9,0.05,0.25.11,0.49,0.15,0.74l0.18,0.16h0Z" style="fill:#eb8980"/><path d="M374.87,173.82a114.82,114.82,0,0,1-5.25-29,113.64,113.64,0,0,0-31.16-44.89,113.66,113.66,0,0,0,17.69,55.61C365.49,161.09,371.77,167.33,374.87,173.82Z" style="fill:#eb8980"/><path d="M374.87,173.82a114.82,114.82,0,0,1-5.25-29,113.64,113.64,0,0,0-31.16-44.89,113.66,113.66,0,0,0,17.69,55.61C365.49,161.09,371.77,167.33,374.87,173.82Z" style="fill:#eb8980"/><path d="M376.67,179c0.11,0.3.21,0.6,0.33,0.9a114.91,114.91,0,0,0-7.38-35.1,114.82,114.82,0,0,0,5.25,29A23.43,23.43,0,0,1,376.67,179Z" style="fill:#eb8980"/><path d="M376.67,179c0.11,0.3.21,0.6,0.33,0.9a114.91,114.91,0,0,0-7.38-35.1,114.82,114.82,0,0,0,5.25,29A23.43,23.43,0,0,1,376.67,179Z" style="fill:#eb8980"/><path d="M376.67,179c0.11,0.3.21,0.6,0.33,0.9a114.91,114.91,0,0,0-7.38-35.1,114.82,114.82,0,0,0,5.25,29A23.43,23.43,0,0,1,376.67,179Z" style="fill:#eb8980"/><path d="M488.88,135.25a247.92,247.92,0,0,0-49.91,5.3,114.2,114.2,0,0,1-61.8,39.34V180a115.06,115.06,0,0,0,18.92,1.71h2.5A114.43,114.43,0,0,0,488.88,135.25Z" style="fill:#eb8980"/><path d="M397.85,155.54a114.94,114.94,0,0,1-20.67,24.23l0,0.12A114.2,114.2,0,0,0,439,140.55a179.5,179.5,0,0,0-19,5.17A114.83,114.83,0,0,0,397.85,155.54Z" style="fill:#eb8980"/><path d="M397.85,155.54a114.94,114.94,0,0,1-20.67,24.23l0,0.12A114.2,114.2,0,0,0,439,140.55a179.5,179.5,0,0,0-19,5.17A114.83,114.83,0,0,0,397.85,155.54Z" style="fill:#eb8980"/><path d="M379.13,173.82q-0.84,2.63-1.8,5.22c-0.05.25-.11,0.49-0.15,0.74a114.94,114.94,0,0,0,20.67-24.23C388.52,161.09,382.23,167.33,379.13,173.82Z" style="fill:#eb8980"/><path d="M379.13,173.82q-0.84,2.63-1.8,5.22c-0.05.25-.11,0.49-0.15,0.74a114.94,114.94,0,0,0,20.67-24.23C388.52,161.09,382.23,167.33,379.13,173.82Z" style="fill:#eb8980"/><path d="M379.13,173.82q-0.84,2.63-1.8,5.22c-0.05.25-.11,0.49-0.15,0.74a114.94,114.94,0,0,0,20.67-24.23C388.52,161.09,382.23,167.33,379.13,173.82Z" style="fill:#eb8980"/><path d="M377.33,179q1-2.59,1.8-5.22A23.44,23.44,0,0,0,377.33,179Z" style="fill:#eb8980"/><path d="M377.33,179q1-2.59,1.8-5.22A23.44,23.44,0,0,0,377.33,179Z" style="fill:#eb8980"/><path d="M377.33,179q1-2.59,1.8-5.22A23.44,23.44,0,0,0,377.33,179Z" style="fill:#eb8980"/><path d="M377.33,179q1-2.59,1.8-5.22A23.44,23.44,0,0,0,377.33,179Z" style="fill:#eb8980"/><path d="M371.41,86.06A115.36,115.36,0,0,1,377,98.45a115.41,115.41,0,0,1,5.59-12.39,114,114,0,0,1,25.59-32.62A114.56,114.56,0,0,0,377,8.5a114.56,114.56,0,0,0-31.18,44.94A114,114,0,0,1,371.41,86.06Z" style="fill:#f3beb9"/><path d="M415.54,99.93q2.14-1.88,4.38-3.68a113.85,113.85,0,0,1,44.16-21.69,114.71,114.71,0,0,0-7.39-46.42,114.55,114.55,0,0,0-48.5,25.3,114,114,0,0,1,7.5,40.77C415.68,96.14,415.63,98,415.54,99.93Z" style="fill:#f3beb9"/><path d="M338.47,99.93c-0.09-1.89-.15-3.8-0.15-5.72a114,114,0,0,1,7.5-40.77,114.55,114.55,0,0,0-48.5-25.3,114.71,114.71,0,0,0-7.39,46.42,113.86,113.86,0,0,1,44.16,21.69Q336.34,98,338.47,99.93Z" style="fill:#f3beb9"/><path d="M439,140.55a247.92,247.92,0,0,1,49.91-5.3,114.33,114.33,0,0,0,22.17-62.17,114.72,114.72,0,0,0-47,1.49A114.78,114.78,0,0,1,439,140.55Z" style="fill:#f3beb9"/><path d="M302.91,122a113.85,113.85,0,0,1-13-47.45,114.72,114.72,0,0,0-47-1.49,114.34,114.34,0,0,0,22.17,62.17,247.92,247.92,0,0,1,49.91,5.3A114.85,114.85,0,0,1,302.91,122Z" style="fill:#f3beb9"/><path d="M488.88,135.25a114.43,114.43,0,0,1-90.31,46.41c24.45-.14,49-3.56,69.57-10.47,26.69-9,41.32-21.92,42.91-35.22C503.74,135.42,496.31,135.19,488.88,135.25Z" style="fill:#f3beb9"/><path d="M265.12,135.25c-7.43-.06-14.86.17-22.17,0.71,1.6,13.3,16.22,26.27,42.91,35.22,20.6,6.91,45.12,10.33,69.57,10.47A114.44,114.44,0,0,1,265.12,135.25Z" style="fill:#f3beb9"/><path d="M376.84,179.89A114.2,114.2,0,0,1,315,140.55a247.92,247.92,0,0,0-49.91-5.3,114.44,114.44,0,0,0,90.31,46.41h2.5A115.06,115.06,0,0,0,376.85,180v-0.06Z" style="fill:#eb8980"/><path d="M382.59,86.06A115.41,115.41,0,0,0,377,98.45a113.56,113.56,0,0,1,7.38,46.38,113.64,113.64,0,0,1,31.16-44.89c0.09-1.89.15-3.8,0.15-5.72a114,114,0,0,0-7.5-40.77A114,114,0,0,0,382.59,86.06Z" style="fill:#f19f98"/><path d="M338.47,99.93a113.64,113.64,0,0,1,31.16,44.89A113.56,113.56,0,0,1,377,98.45a115.36,115.36,0,0,0-5.59-12.39,114,114,0,0,0-25.59-32.62,114,114,0,0,0-7.5,40.77C338.32,96.14,338.37,98,338.47,99.93Z" style="fill:#f19f98"/><path d="M415.54,99.93a113.66,113.66,0,0,1-17.69,55.61,114.83,114.83,0,0,1,22.07-9.82,179.5,179.5,0,0,1,19-5.17,114.78,114.78,0,0,0,25.11-66,113.85,113.85,0,0,0-44.16,21.69Q417.66,98,415.54,99.93Z" style="fill:#f19f98"/><path d="M315,140.55a179.5,179.5,0,0,1,19,5.17,114.81,114.81,0,0,1,22.07,9.82,113.66,113.66,0,0,1-17.69-55.61q-2.14-1.88-4.38-3.68a113.86,113.86,0,0,0-44.16-21.69A114.78,114.78,0,0,0,315,140.55Z" style="fill:#f19f98"/><path d="M488.88,135.25a247.92,247.92,0,0,0-49.91,5.3,114.2,114.2,0,0,1-61.8,39.34V180a115.06,115.06,0,0,0,18.92,1.71h2.5A114.43,114.43,0,0,0,488.88,135.25Z" style="fill:#f19f98"/><path d="M376.84,179.89A114.2,114.2,0,0,1,315,140.55a247.92,247.92,0,0,0-49.91-5.3,114.44,114.44,0,0,0,90.31,46.41h2.5A115.06,115.06,0,0,0,376.85,180v-0.06Z" style="fill:#f19f98"/><path d="M356.15,155.54a114.81,114.81,0,0,0-22.07-9.82,179.5,179.5,0,0,0-19-5.17,114.2,114.2,0,0,0,61.8,39.34l0-.12A114.94,114.94,0,0,1,356.15,155.54Z" style="fill:#eb8980"/><path d="M356.15,155.54a114.81,114.81,0,0,0-22.07-9.82,179.5,179.5,0,0,0-19-5.17,114.2,114.2,0,0,0,61.8,39.34l0-.12A114.94,114.94,0,0,1,356.15,155.54Z" style="fill:#eb8980"/><path d="M377,179.93a114.9,114.9,0,0,1,7.38-35.1A113.56,113.56,0,0,0,377,98.45a113.56,113.56,0,0,0-7.38,46.38,114.91,114.91,0,0,1,7.38,35.1h0Z" style="fill:#ef9088"/><path d="M397.85,155.54a113.66,113.66,0,0,0,17.69-55.61,113.64,113.64,0,0,0-31.16,44.89,114.81,114.81,0,0,1-5.25,29C382.23,167.33,388.52,161.09,397.85,155.54Z" style="fill:#ef9088"/><path d="M374.87,173.82a114.82,114.82,0,0,1-5.25-29,113.64,113.64,0,0,0-31.16-44.89,113.66,113.66,0,0,0,17.69,55.61C365.49,161.09,371.77,167.33,374.87,173.82Z" style="fill:#ef9088"/><path d="M397.85,155.54a114.94,114.94,0,0,1-20.67,24.23l0,0.12A114.2,114.2,0,0,0,439,140.55a179.5,179.5,0,0,0-19,5.17A114.83,114.83,0,0,0,397.85,155.54Z" style="fill:#ef9088"/><path d="M356.15,155.54a114.81,114.81,0,0,0-22.07-9.82,179.5,179.5,0,0,0-19-5.17,114.2,114.2,0,0,0,61.8,39.34l0-.12A114.94,114.94,0,0,1,356.15,155.54Z" style="fill:#ef9088"/><path d="M376.82,179.77c0-.25-0.1-0.49-0.15-0.74q-1-2.59-1.8-5.22c-3.11-6.49-9.39-12.73-18.72-18.28A114.94,114.94,0,0,0,376.82,179.77Z" style="fill:#eb8980"/><path d="M376.82,179.77c0-.25-0.1-0.49-0.15-0.74q-1-2.59-1.8-5.22c-3.11-6.49-9.39-12.73-18.72-18.28A114.94,114.94,0,0,0,376.82,179.77Z" style="fill:#eb8980"/><path d="M376.82,179.77c0-.25-0.1-0.49-0.15-0.74q-1-2.59-1.8-5.22c-3.11-6.49-9.39-12.73-18.72-18.28A114.94,114.94,0,0,0,376.82,179.77Z" style="fill:#eb8980"/><path d="M376.67,179a23.43,23.43,0,0,0-1.8-5.22Q375.71,176.45,376.67,179Z" style="fill:#eb8980"/><path d="M376.67,179a23.43,23.43,0,0,0-1.8-5.22Q375.71,176.45,376.67,179Z" style="fill:#eb8980"/><path d="M376.67,179a23.43,23.43,0,0,0-1.8-5.22Q375.71,176.45,376.67,179Z" style="fill:#eb8980"/><path d="M376.67,179a23.43,23.43,0,0,0-1.8-5.22Q375.71,176.45,376.67,179Z" style="fill:#eb8980"/><path d="M374.87,173.82c-3.11-6.49-9.39-12.73-18.72-18.28a114.94,114.94,0,0,0,20.67,24.23c0-.25-0.1-0.49-0.15-0.74,0.11,0.3.21,0.6,0.33,0.9a114.91,114.91,0,0,0-7.38-35.1A114.82,114.82,0,0,0,374.87,173.82Z" style="fill:#eb877e"/><path d="M379.13,173.82a114.81,114.81,0,0,0,5.25-29,114.9,114.9,0,0,0-7.38,35.1h0c0.11-.3.22-0.6,0.33-0.9-0.05.25-.11,0.49-0.15,0.74a114.94,114.94,0,0,0,20.67-24.23C388.52,161.09,382.23,167.33,379.13,173.82Z" style="fill:#eb877e"/></svg>